<svg width="22" height="19" viewBox="0 0 22 19" fill="none" xmlns="http://www.w3.org/2000/svg">
<path fill-rule="evenodd" clip-rule="evenodd" d="M21.5988 1.78119C21.5988 0.797464 20.8567 0 19.9412 0H18.2837C17.3682 0 16.6261 0.797464 16.6261 1.78119V17.2181C16.6261 18.2018 17.3682 18.9993 18.2837 18.9993H19.9412C20.8567 18.9993 21.5988 18.2018 21.5988 17.2181V1.78119ZM10.0465 3.79986H11.704C12.6195 3.79986 13.3616 4.61646 13.3616 5.6238V17.1754C13.3616 18.1827 12.6195 18.9993 11.704 18.9993H10.0465C9.13105 18.9993 8.38894 18.1827 8.38894 17.1754V5.6238C8.38894 4.61646 9.13105 3.79986 10.0465 3.79986ZM3.31511 7.91637H1.65755C0.742112 7.91637 0 8.74337 0 9.76352V17.1521C0 18.1723 0.742112 18.9993 1.65755 18.9993H3.31511C4.23055 18.9993 4.97266 18.1723 4.97266 17.1521V9.76352C4.97266 8.74337 4.23055 7.91637 3.31511 7.91637Z" fill="white"/>
</svg>
