<svg width="9" height="7" viewBox="0 0 9 7" fill="none" xmlns="http://www.w3.org/2000/svg">
<path d="M1.40418 7.25204e-07H7.59389C7.85427 -0.000263819 8.1096 0.0718528 8.33137 0.208298C8.55313 0.344743 8.73261 0.540145 8.84976 0.772687C8.9669 1.00523 9.0171 1.26575 8.99476 1.52517C8.97241 1.78459 8.87839 2.0327 8.7232 2.24178L5.76039 6.23091C5.71677 6.28906 5.66022 6.33626 5.59521 6.36876C5.53019 6.40127 5.45851 6.41819 5.38582 6.41819H3.61412C3.54143 6.41819 3.46974 6.40127 3.40473 6.36876C3.33972 6.33626 3.28317 6.28906 3.23955 6.23091L0.276733 2.24178C0.121641 2.03283 0.0276433 1.78489 0.00522349 1.52564C-0.0171963 1.26639 0.0328443 1.006 0.149763 0.773522C0.266681 0.541044 0.445881 0.345617 0.667377 0.209033C0.888873 0.0724501 1.14396 8.33873e-05 1.40418 7.25204e-07Z" fill="white"/>
</svg>
