<svg width="8" height="16" viewBox="0 0 8 16" fill="none" xmlns="http://www.w3.org/2000/svg">
<path d="M0.0143444 10.8005C-0.00407542 10.872 -0.00476549 10.947 0.0123325 11.0189C0.0294305 11.0907 0.0638008 11.1573 0.112465 11.2129L3.65569 15.2886C3.69833 15.3378 3.75107 15.3773 3.81032 15.4044C3.86958 15.4315 3.93396 15.4455 3.99911 15.4455C4.06426 15.4455 4.12864 15.4315 4.18789 15.4044C4.24715 15.3773 4.29989 15.3378 4.34253 15.2886L7.88757 11.2129C7.93623 11.1573 7.9706 11.0907 7.9877 11.0189C8.0048 10.947 8.00411 10.872 7.98569 10.8005L5.25287 0.339784C5.2276 0.242762 5.17095 0.156825 5.09174 0.0953642C5.01253 0.0339033 4.91521 0.000373877 4.81496 1.69151e-08H3.18689C3.08633 -2.74171e-05 2.98859 0.0333166 2.90901 0.0948086C2.82944 0.156301 2.77251 0.242462 2.74717 0.339784L0.0143444 10.8005Z" fill="white"/>
</svg>
