<svg width="27" height="19" viewBox="0 0 27 19" fill="none" xmlns="http://www.w3.org/2000/svg">
<path fill-rule="evenodd" clip-rule="evenodd" d="M13.2097 3.80092C17.0427 3.80108 20.7292 5.22216 23.5071 7.77043C23.7163 7.96716 24.0507 7.96468 24.2567 7.76486L26.2563 5.81766C26.3607 5.71632 26.4188 5.57904 26.418 5.4362C26.4171 5.29336 26.3573 5.15675 26.2517 5.05659C18.9605 -1.68553 7.45775 -1.68553 0.166531 5.05659C0.0609126 5.15668 0.000985979 5.29325 1.2058e-05 5.43608C-0.000961863 5.57892 0.0570972 5.71624 0.161342 5.81766L2.16155 7.76486C2.36745 7.96498 2.70207 7.96746 2.91113 7.77043C5.68943 5.22199 9.3763 3.80091 13.2097 3.80092ZM13.2045 10.305C15.2964 10.3049 17.3136 11.0936 18.8641 12.5178C19.0739 12.7199 19.4042 12.7155 19.6087 12.5079L21.5926 10.4747C21.6971 10.368 21.755 10.2233 21.7535 10.073C21.752 9.92264 21.6912 9.77918 21.5846 9.67471C16.8627 5.21947 9.55035 5.21947 4.82851 9.67471C4.72185 9.77918 4.661 9.92271 4.6596 10.0731C4.6582 10.2235 4.71637 10.3682 4.82107 10.4747L6.80439 12.5079C7.00883 12.7155 7.3392 12.7199 7.54893 12.5178C9.09849 11.0945 11.1141 10.3059 13.2045 10.305ZM17.0951 14.6103C17.098 14.7727 17.0409 14.9292 16.9372 15.043L13.5826 18.8261C13.4843 18.9373 13.3502 18.9998 13.2103 18.9998C13.0704 18.9998 12.9364 18.9373 12.838 18.8261L9.48289 15.043C9.37924 14.9291 9.32222 14.7725 9.3253 14.6102C9.32837 14.4478 9.39126 14.2941 9.49912 14.1852C11.6415 12.1603 14.7792 12.1603 16.9215 14.1852C17.0293 14.2942 17.0921 14.448 17.0951 14.6103Z" fill="black"/>
</svg>
