<svg width="32" height="41" viewBox="0 0 32 41" fill="none" xmlns="http://www.w3.org/2000/svg">
<path d="M3.006 5.254L3 9.5V30.508C3 32.2319 3.68482 33.8852 4.90381 35.1042C6.12279 36.3232 7.77609 37.008 9.5 37.008H26.732C26.4217 37.8856 25.847 38.6453 25.0869 39.1826C24.3268 39.7199 23.4188 40.0083 22.488 40.008H9.5C6.98044 40.008 4.56408 39.0071 2.78249 37.2255C1.00089 35.4439 0 33.0276 0 30.508V9.5C0 7.54 1.254 5.87 3.006 5.254ZM27.5 0C28.0909 0 28.6761 0.116396 29.2221 0.342542C29.768 0.568688 30.2641 0.900156 30.682 1.31802C31.0998 1.73588 31.4313 2.23196 31.6575 2.77792C31.8836 3.32389 32 3.90905 32 4.5V30.5C32 31.0909 31.8836 31.6761 31.6575 32.2221C31.4313 32.768 31.0998 33.2641 30.682 33.682C30.2641 34.0998 29.768 34.4313 29.2221 34.6575C28.6761 34.8836 28.0909 35 27.5 35H9.5C8.30653 35 7.16193 34.5259 6.31802 33.682C5.47411 32.8381 5 31.6935 5 30.5V4.5C5 3.30653 5.47411 2.16193 6.31802 1.31802C7.16193 0.474106 8.30653 0 9.5 0H27.5ZM27.5 3H9.5C9.10218 3 8.72064 3.15804 8.43934 3.43934C8.15804 3.72064 8 4.10218 8 4.5V30.5C8 31.328 8.672 32 9.5 32H27.5C27.8978 32 28.2794 31.842 28.5607 31.5607C28.842 31.2794 29 30.8978 29 30.5V4.5C29 4.10218 28.842 3.72064 28.5607 3.43934C28.2794 3.15804 27.8978 3 27.5 3Z" fill="black" fill-opacity="0.4"/>
</svg>
